<svg xmlns="http://www.w3.org/2000/svg" viewBox="0 0 534.01 428.51"><defs><style>.cls-1{font-size:92.26px;fill:#676767;font-family:FONTSPRINGDEMO-SombraBlackRegular, FONTSPRINGDEMO SombraBlackRegular;font-weight:800;}.cls-2{fill:#1a3d6c;}</style></defs><g id="Layer_2" data-name="Layer 2"><g id="Layer_1-2" data-name="Layer 1"><text class="cls-1" transform="translate(19.56 405.44)">ARAB GROUP</text><path class="cls-2" d="M164.46,132c-1.61.33-3.24.59-4.87.78a20.33,20.33,0,0,1-6.83-.1,9.85,9.85,0,0,1-6.29-4.25c-1.5-2.7-.93-6.47-.67-9.41.37-4.16.24-8.41.29-12.6q.16-13.32.17-26.66c0-5.91-.37-11.92-.06-17.82.15-2.73.32-5.49.56-8.22A66,66,0,0,1,152,32c3.21-7.06,8.28-12.78,14.24-17.7.72-.6,1.46-1.19,2.2-1.76a54.24,54.24,0,0,1,14.86-8.45c7.77-2.74,16.07-2.91,24.21-3.22C216.29.53,225,0,233.77.21c8.18.18,16.42-.13,24.52,1.18a54.84,54.84,0,0,1,21,8.29C291,17.27,298.8,29,302.64,42.29c2.39,8.23,2.9,16.84,2.93,25.37.07,17.6-.15,35.2-.18,52.8s-.06,35.15-.09,52.73-.07,35.19-.13,52.79c0,8.82-.07,17.64.11,26.47.07,3.38-.36,7,.76,10.22a12.85,12.85,0,0,0,6.09,7.2,12.53,12.53,0,0,0,13.56-1.51c3.63-3.1,5.1-8.07,5.41-12.83.29-4.57-.2-9.18-.2-13.77,0-17.55-.23-35.1-.35-52.65,0-6-.14-12-.15-18,0-5.59.93-11.65-.24-17.15A12.64,12.64,0,0,0,325,145.8c-4.36-2.76-11.48-1.82-14.46-6.65a8,8,0,0,1,.36-8.39c1.75-2.36,4.94-3.17,7.88-3.23,6.61-.13,13.28,0,19.89.19,14.65.45,28.7,5.47,39.34,15.74a64.23,64.23,0,0,1,14,19.94c7.05,15.81,5.68,33.27,5.56,50.17-.11,15.62-.12,31.78-8.9,45.37-7.22,11.19-18.21,20.9-30.87,25.41-7.77,2.76-16.05,3.59-24.23,3.71-8.59.14-17.24.32-25.81-.12-8.3-.43-16.45,0-24.66-1.76a52.62,52.62,0,0,1-6.64-1.83c-13.25-4.6-24.58-15-31.36-27.19A61.34,61.34,0,0,1,240.18,246c-.61-1.87-1.05-3.79-1.53-5.7a25.81,25.81,0,0,1-.3-5.84q-.12-13.35-.16-26.7c-.06-17.59.08-35.18,0-52.76s0-35.21.08-52.82.34-35.08,0-52.62c-.13-7.64.84-15.35-.47-22.94a14.23,14.23,0,0,0-2.72-6.81,11.39,11.39,0,0,0-7.66-3.61c-5.52-.55-11.7,1.46-13.37,7.27a25,25,0,0,0-.68,6.46c-.14,7.43-.43,14.9-.34,22.31.1,7.72.42,15.45-.09,23.16-1,14.38-6.07,28.06-16,38.64A61.67,61.67,0,0,1,164.46,132Z"/><path class="cls-2" d="M222.88,127.88a5.11,5.11,0,0,0-.55.05s-12.91-.38-19-.05c-13.12.71-24,4.15-31.47,9.94-6.34,4.91-11.57,9.33-16.16,16.36-6.21,9.52-8.68,17.11-9.28,32.27l-.29,23.87c0,5.06.2,16.93.2,16.93.26,7,.5,13,2.51,19.69,5.21,17.47,19.06,31.36,38,37.89a60.8,60.8,0,0,0,21.26,3.58l18.12-.36,10-.48a4.72,4.72,0,0,0,1-.07c-.29-.31-.64-.58-1-.88-1.84-1.83-3.83-3.51-5.56-5.45-3.88-4.26-7-9.22-11.92-12.46-1.77-1.17-3.88-2.35-4.75-4.4-1.48-3.49-1.53-7.34-1.38-11.06.11-2.61-.07-5.29-.1-7.91,0-1.58,0-3.17,0-4.75l.94-14.68V167.84c-.25-7.88-1.7-17.3,5-21.79,2.65-1.77,7-2.07,10-3.09,4.61-1.58,7.48-7.47,3.84-12C230,127.88,226.47,127.88,222.88,127.88Z"/><path class="cls-2" d="M307.15.15c9.2-.4,18.59.11,27.81.32C341,.6,347.11.75,353,2c6.15,1.27,11.47,4,16.69,7.4A61.89,61.89,0,0,1,392.25,36a47.5,47.5,0,0,1,3,9.14c1.49,6.72,1.59,13.73,1.56,20.57l-.12,21.51-.1,18.72c0,2.42-.08,5-1.49,7a9,9,0,0,1-5.26,3.18c-6.06,1.57-12.51.26-18.29-1.78a61.71,61.71,0,0,1-27.87-19.47c-7.6-9.57-12.55-21.23-12.39-33.57q.12-8.57.09-17.13c0-5.49.35-11.19-.3-16.64a13.23,13.23,0,0,0-1.37-4.87A14,14,0,0,0,324.94,18a53,53,0,0,1-5.59-3.76c-2.36-2-4-4.69-5.84-7.19S309.17,2.59,307.15.15Z"/></g></g></svg>