<svg xmlns="http://www.w3.org/2000/svg" viewBox="0 0 252.26 288.41"><defs><style>.cls-1{fill:#fff;}</style></defs><g id="Layer_2" data-name="Layer 2"><g id="Layer_1-2" data-name="Layer 1"><path class="cls-1" d="M19,132q-2.41.5-4.86.78a20.33,20.33,0,0,1-6.83-.1A9.9,9.9,0,0,1,1,128.44C-.5,125.74.07,122,.33,119c.36-4.16.24-8.41.29-12.6Q.77,93.11.78,79.77C.78,73.86.41,67.85.72,62c.15-2.73.32-5.49.56-8.22A66.21,66.21,0,0,1,6.54,32c3.21-7.06,8.28-12.78,14.24-17.7.72-.6,1.46-1.19,2.21-1.76A54,54,0,0,1,37.84,4.08C45.61,1.34,53.91,1.17,62.05.86,70.81.53,79.51,0,88.29.21c8.18.18,16.42-.13,24.52,1.18a54.84,54.84,0,0,1,21,8.29c11.7,7.59,19.5,19.35,23.34,32.61,2.39,8.23,2.9,16.84,2.94,25.37.06,17.6-.15,35.2-.19,52.8s-.06,35.15-.09,52.73-.07,35.19-.13,52.79c0,8.82-.07,17.64.11,26.47.07,3.38-.36,7,.76,10.22a12.85,12.85,0,0,0,6.09,7.2,12.55,12.55,0,0,0,13.57-1.51c3.62-3.1,5.09-8.07,5.4-12.83.29-4.57-.2-9.18-.2-13.77,0-17.55-.23-35.1-.35-52.65,0-6-.14-12-.15-18,0-5.59.93-11.65-.24-17.15a12.64,12.64,0,0,0-5.16-8.16C175.16,143,168,144,165.06,139.15a7.47,7.47,0,0,1-1-4.17,7.55,7.55,0,0,1,1.37-4.22c1.75-2.36,4.94-3.17,7.88-3.23,6.61-.13,13.29,0,19.89.19,14.65.45,28.7,5.47,39.34,15.74a64.06,64.06,0,0,1,14,19.94c7,15.81,5.68,33.27,5.56,50.17-.11,15.62-.12,31.78-8.9,45.37-7.22,11.19-18.21,20.9-30.87,25.41-7.77,2.76-16.05,3.59-24.23,3.71-8.59.14-17.24.32-25.81-.12-8.3-.43-16.45,0-24.66-1.76a52.62,52.62,0,0,1-6.64-1.83c-13.25-4.6-24.58-15-31.36-27.19A62.75,62.75,0,0,1,94.7,246c-.61-1.87-1-3.79-1.52-5.7a25.25,25.25,0,0,1-.31-5.84q-.12-13.35-.16-26.7c-.06-17.59.08-35.18,0-52.76s0-35.21.07-52.82.34-35.08,0-52.62c-.12-7.64.84-15.35-.47-22.94a14,14,0,0,0-2.72-6.81A11.39,11.39,0,0,0,82,16.23c-5.53-.55-11.71,1.46-13.38,7.27A25.43,25.43,0,0,0,67.94,30c-.14,7.43-.42,14.9-.33,22.31.09,7.72.42,15.45-.1,23.16-1,14.38-6.07,28.06-16,38.64A61.67,61.67,0,0,1,19,132Z"/><path class="cls-1" d="M77.41,127.88a5.07,5.07,0,0,0-.56.05s-12.91-.38-18.95-.05c-13.11.71-24,4.15-31.47,9.94-6.34,4.91-11.57,9.33-16.16,16.36C4.06,163.7,1.59,171.29,1,186.45L.7,210.32c0,5.06.2,16.93.2,16.93.26,7,.5,13,2.51,19.69,5.21,17.47,19.07,31.36,38,37.89a60.82,60.82,0,0,0,21.27,3.58l18.11-.36,10-.48a4.72,4.72,0,0,0,1-.07c-.29-.31-.64-.58-.95-.88-1.84-1.83-3.83-3.51-5.56-5.45-3.88-4.26-7-9.22-11.92-12.46-1.77-1.17-3.88-2.35-4.75-4.4-1.47-3.49-1.53-7.34-1.37-11.06.1-2.61-.07-5.29-.1-7.91,0-1.58,0-3.17,0-4.75l.93-14.68V167.84c-.25-7.88-1.7-17.3,5-21.79,2.65-1.77,7-2.07,10-3.09,4.61-1.58,7.49-7.47,3.84-12C84.53,127.88,81,127.88,77.41,127.88Z"/><path class="cls-1" d="M161.67.15c9.21-.4,18.59.11,27.82.32,6,.13,12.14.28,18.07,1.5,6.14,1.27,11.46,4,16.68,7.4A61.89,61.89,0,0,1,246.77,36a48.23,48.23,0,0,1,3,9.14c1.48,6.72,1.59,13.73,1.55,20.57l-.12,21.51-.1,18.72c0,2.42-.08,5-1.48,7a9.05,9.05,0,0,1-5.27,3.18c-6.06,1.57-12.51.26-18.29-1.78a61.71,61.71,0,0,1-27.87-19.47c-7.6-9.57-12.55-21.23-12.39-33.57q.12-8.57.09-17.13c0-5.49.35-11.19-.3-16.64a13.23,13.23,0,0,0-1.37-4.87A14,14,0,0,0,179.46,18a51.86,51.86,0,0,1-5.58-3.76c-2.37-2-4-4.69-5.85-7.19S163.7,2.59,161.67.15Z"/></g></g></svg>