<svg xmlns="http://www.w3.org/2000/svg" viewBox="0 0 45.2 45"><defs><style>.cls-1{fill:#fff;}</style></defs><g id="Layer_2" data-name="Layer 2"><g id="Layer_1-2" data-name="Layer 1"><path class="cls-1" d="M45.2,1.63V13.12C45.2,26,37,37.86,23.35,44.82a1.66,1.66,0,0,1-.75.18,1.62,1.62,0,0,1-.74-.18C8.17,37.86,0,26,0,13.12V1.63A1.62,1.62,0,0,1,2.77.48L10.14,8a1.6,1.6,0,0,1,.46,1.13v7c0,7.11,4.48,13.79,12,17.94,7.51-4.13,12-10.82,12-17.94v-7a1.65,1.65,0,0,1,.47-1.15L36.3,6.7l.3-.31L42.44.49A1.57,1.57,0,0,1,43.59,0,1.62,1.62,0,0,1,45.2,1.63Z"/></g></g></svg>